<svg width="183" height="64" viewBox="0 0 183 64" fill="none" xmlns="http://www.w3.org/2000/svg">
<path d="M0.824 23.5239V0.483879H5.08V9.85988H10.488L18.36 0.483879H22.968V1.69988L14.328 12.0039L23 22.3079V23.5239H18.36L10.488 14.1479H5.08V23.5239H0.824ZM25.5435 23.5239V4.93188C25.5435 4.12121 25.7462 3.38521 26.1515 2.72388C26.5568 2.04121 27.0902 1.49721 27.7515 1.09188C28.4342 0.686546 29.1808 0.483879 29.9915 0.483879H44.1035C44.9142 0.483879 45.6608 0.686546 46.3435 1.09188C47.0262 1.49721 47.5702 2.04121 47.9755 2.72388C48.3808 3.38521 48.5835 4.12121 48.5835 4.93188V23.5239H44.3275V15.7799H29.7675V23.5239H25.5435ZM29.7675 11.5559H44.3275V5.12388C44.3275 5.01721 44.2848 4.93188 44.1995 4.86788C44.1142 4.78255 44.0182 4.73988 43.9115 4.73988H30.1515C30.0448 4.73988 29.9488 4.78255 29.8635 4.86788C29.7995 4.93188 29.7675 5.01721 29.7675 5.12388V11.5559ZM52.2295 23.5239V0.483879H56.8695L71.0135 17.3159V0.483879H75.2695V23.5239H70.6295L56.4535 6.65988V23.5239H52.2295ZM83.3025 23.5239C82.4918 23.5239 81.7452 23.3212 81.0625 22.9159C80.4012 22.5105 79.8678 21.9772 79.4625 21.3159C79.0572 20.6332 78.8545 19.8865 78.8545 19.0759V4.93188C78.8545 4.12121 79.0572 3.38521 79.4625 2.72388C79.8678 2.04121 80.4012 1.49721 81.0625 1.09188C81.7452 0.686546 82.4918 0.483879 83.3025 0.483879H101.831V4.73988H84.1985C83.8572 4.73988 83.5798 4.83588 83.3665 5.02788C83.1745 5.21988 83.0785 5.49721 83.0785 5.85988V18.1479C83.0785 18.4892 83.1745 18.7665 83.3665 18.9799C83.5798 19.1719 83.8572 19.2679 84.1985 19.2679H101.831V23.5239H83.3025ZM105.199 23.5239V0.483879H109.423V9.85988H124.527V0.483879H128.751V23.5239H124.527V14.1479H109.423V23.5239H105.199ZM132.45 23.5239V4.93188C132.45 4.12121 132.652 3.38521 133.058 2.72388C133.463 2.04121 133.996 1.49721 134.658 1.09188C135.34 0.686546 136.087 0.483879 136.898 0.483879H151.01C151.82 0.483879 152.567 0.686546 153.25 1.09188C153.932 1.49721 154.476 2.04121 154.882 2.72388C155.287 3.38521 155.49 4.12121 155.49 4.93188V23.5239H151.234V15.7799H136.674V23.5239H132.45ZM136.674 11.5559H151.234V5.12388C151.234 5.01721 151.191 4.93188 151.106 4.86788C151.02 4.78255 150.924 4.73988 150.818 4.73988H137.058C136.951 4.73988 136.855 4.78255 136.77 4.86788C136.706 4.93188 136.674 5.01721 136.674 5.12388V11.5559ZM159.136 23.5239V0.483879H163.776L177.92 17.3159V0.483879H182.176V23.5239H177.536L163.36 6.65988V23.5239H159.136Z" fill="url(#paint0_linear_152_4)"/>
<path d="M0.888 63.5239V40.4839H18.552C19.3627 40.4839 20.0987 40.6865 20.76 41.0919C21.4427 41.4972 21.9867 42.0412 22.392 42.7239C22.7973 43.3852 23 44.1212 23 44.9319V49.4439C23 49.7212 22.9787 49.9879 22.936 50.2439C22.8933 50.4999 22.8187 50.7452 22.712 50.9799C23.0747 51.4705 23.3627 51.9825 23.576 52.5159C23.8107 53.0492 23.928 53.5825 23.928 54.1159V59.0759C23.928 59.8865 23.7253 60.6332 23.32 61.3159C22.9147 61.9772 22.3707 62.5105 21.688 62.9159C21.0053 63.3212 20.2587 63.5239 19.448 63.5239H0.888ZM5.496 59.2679H19.256C19.3627 59.2679 19.4587 59.2359 19.544 59.1719C19.6293 59.0865 19.672 58.9905 19.672 58.8839V54.3079C19.672 54.2012 19.6293 54.1159 19.544 54.0519C19.4587 53.9665 19.3627 53.9239 19.256 53.9239H5.496C5.38933 53.9239 5.29333 53.9665 5.208 54.0519C5.144 54.1159 5.112 54.2012 5.112 54.3079V58.8839C5.112 58.9905 5.144 59.0865 5.208 59.1719C5.29333 59.2359 5.38933 59.2679 5.496 59.2679ZM5.496 49.6679H18.36C18.4667 49.6679 18.552 49.6359 18.616 49.5719C18.68 49.4865 18.712 49.3905 18.712 49.2839V45.1239C18.712 45.0172 18.68 44.9319 18.616 44.8679C18.552 44.7825 18.4667 44.7399 18.36 44.7399H5.496C5.38933 44.7399 5.29333 44.7825 5.208 44.8679C5.144 44.9319 5.112 45.0172 5.112 45.1239V49.2839C5.112 49.3905 5.144 49.4865 5.208 49.5719C5.29333 49.6359 5.38933 49.6679 5.496 49.6679ZM27.449 63.5239V40.4839H31.673V49.8599H46.777V40.4839H51.001V63.5239H46.777V54.1479H31.673V63.5239H27.449ZM59.0198 63.5239C58.2091 63.5239 57.4624 63.3212 56.7798 62.9159C56.1184 62.5105 55.5851 61.9772 55.1798 61.3159C54.7744 60.6332 54.5718 59.8865 54.5718 59.0759V40.4839H58.7958V58.8839C58.7958 58.9905 58.8278 59.0865 58.8918 59.1719C58.9771 59.2359 59.0731 59.2679 59.1798 59.2679H72.9398C73.0464 59.2679 73.1424 59.2359 73.2278 59.1719C73.3131 59.0865 73.3558 58.9905 73.3558 58.8839V40.4839H77.6118V59.0759C77.6118 59.8865 77.4091 60.6332 77.0038 61.3159C76.5984 61.9772 76.0544 62.5105 75.3718 62.9159C74.7104 63.3212 73.9744 63.5239 73.1638 63.5239H59.0198ZM83.9198 63.5239C83.1091 63.5239 82.3624 63.3212 81.6798 62.9159C81.0184 62.5105 80.4851 61.9772 80.0798 61.3159C79.6744 60.6332 79.4718 59.8865 79.4718 59.0759V56.4519H83.6958V58.8839C83.6958 58.9905 83.7278 59.0865 83.7918 59.1719C83.8771 59.2359 83.9731 59.2679 84.0798 59.2679H97.8398C97.9464 59.2679 98.0424 59.2359 98.1278 59.1719C98.2131 59.0865 98.2558 58.9905 98.2558 58.8839V40.4839H102.512V59.0759C102.512 59.8865 102.309 60.6332 101.904 61.3159C101.498 61.9772 100.954 62.5105 100.272 62.9159C99.6104 63.3212 98.8744 63.5239 98.0638 63.5239H83.9198ZM110.489 63.5239C109.678 63.5239 108.931 63.3212 108.249 62.9159C107.587 62.5105 107.054 61.9772 106.649 61.3159C106.243 60.6332 106.041 59.8865 106.041 59.0759V40.4839H110.265V58.8839C110.265 58.9905 110.297 59.0865 110.361 59.1719C110.446 59.2359 110.542 59.2679 110.649 59.2679H124.409C124.515 59.2679 124.611 59.2359 124.697 59.1719C124.782 59.0865 124.825 58.9905 124.825 58.8839V40.4839H129.081V59.0759C129.081 59.8865 128.878 60.6332 128.473 61.3159C128.067 61.9772 127.523 62.5105 126.841 62.9159C126.179 63.3212 125.443 63.5239 124.633 63.5239H110.489Z" fill="black"/>
<defs>
<linearGradient id="paint0_linear_152_4" x1="-1" y1="6.64864" x2="195.859" y2="11.627" gradientUnits="userSpaceOnUse">
<stop stop-color="#0C1D4B"/>
<stop offset="0.245259" stop-color="#BF8BB2"/>
<stop offset="0.497552" stop-color="#FFABC3"/>
<stop offset="0.697007" stop-color="#84A4CD"/>
<stop offset="0.842062" stop-color="#263D58"/>
<stop offset="1" stop-color="#250E2F"/>
</linearGradient>
</defs>
</svg>
